# xmcd CD database file
#
# Track frame offsets:
#	150
#	26698
#	47664
#	67556
#	87492
#	110323
#	126666
#	147882
#	174112
#	192291
#	213359
#	231751
#	254657
#	284261
#	307006
#
# Disc length: 4363 seconds
#
# Revision: 0
# Processed by: cddbd v1.5.1PL0 Copyright (c) Steve Scherf et al.
# Submitted via: CDex 1.50beta8
#
DISCID=d611090f
DTITLE=misc - Late Night Jazz v.3
DYEAR=2003
DGENRE=Jazz
TTITLE0=Fourplay/East 2 West
TTITLE1=Denny Jiosa/Europa
TTITLE2=Group 3/Uncle Darrows
TTITLE3=Bob James/Five oClock Shateau
TTITLE4=Eric Marienthal/Captain Bacardi
TTITLE5=Richard Elliot/Crush
TTITLE6=David Benoit/Rejoyce
TTITLE7=Paul Hardcastle/Golden Gate
TTITLE8=Gregg Karukas/Your Sweet Smile
TTITLE9=Chieli Minucci/Foolin Around Again
TTITLE10=Shakatak/Sea Dreamin
TTITLE11=Joyce Cooling/Mm-mm Good
TTITLE12=Jeff Kashiwa/Simple Truth
TTITLE13=Eric Marienthal/Captain Bacardi2
TTITLE14=Joe McBride/Howzit In Dallas?
EXTD=YEAR: 2003
EXTT0=
EXTT1=
EXTT2=
EXTT3=
EXTT4=
EXTT5=
EXTT6=
EXTT7=
EXTT8=
EXTT9=
EXTT10=
EXTT11=
EXTT12=
EXTT13=
EXTT14=
PLAYORDER=
